<?xml version="1.0" encoding="utf-8"?>
<!-- Generator: Adobe Illustrator 24.2.3, SVG Export Plug-In . SVG Version: 6.00 Build 0)  -->
<svg version="1.1" id="Layer_1" xmlns="http://www.w3.org/2000/svg" xmlns:xlink="http://www.w3.org/1999/xlink" x="0px" y="0px"
	 viewBox="0 0 223 30" style="enable-background:new 0 0 223 30;" xml:space="preserve">
<style type="text/css">
	.st0{fill-rule:evenodd;clip-rule:evenodd;fill:#FF5E5B;}
	.st1{fill:#FFFFFF;}
	.st2{fill:#FF5E5B;}
</style>
<desc>Created with Sketch.</desc>
<g id="Artboard">
	<path id="Rectangle" class="st0" d="M8,0h207c4.4,0,8,3.6,8,8v14c0,4.4-3.6,8-8,8H8c-4.4,0-8-3.6-8-8V8C0,3.6,3.6,0,8,0z"/>
	<g id="Group" transform="translate(24.000000, 7.000000)">
		<path id="Rectangle-2" class="st1" d="M17.4,0H19c3.1,0,5.6,2.5,5.6,5.6v0.3c0,3.1-2.5,5.6-5.6,5.6h-1.6v1.7
			c0,1.4-1.2,2.6-2.6,2.6H2.6c-1.4,0-2.6-1.2-2.6-2.6v-12C0,0.6,0.6,0,1.3,0H17.4z M17.4,3v5.6h1.5c1.5,0,2.8-1.2,2.8-2.8
			S20.4,3,18.9,3H17.4z"/>
		<path id="Path-2" class="st2" d="M8.4,5.3c0.4-1.2,1.3-1.8,2.8-1.8c2.2,0,3.1,2.8,1.9,4.6c-0.8,1.2-2.4,2.8-4.7,4.6
			c-2.4-1.9-4-3.4-4.7-4.6C2.4,6.3,3.3,3.5,5.5,3.5C7,3.5,8,4.1,8.4,5.3z"/>
	</g>
	<path id="SupportmeonKo-f" class="st1" d="M66.2,19.1c-0.7,0-1.3-0.1-1.8-0.3c-0.5-0.2-1-0.5-1.5-0.9c-0.3-0.2-0.4-0.5-0.4-0.7
		c0-0.2,0.1-0.4,0.2-0.6s0.3-0.2,0.6-0.2c0.2,0,0.3,0.1,0.5,0.2c0.4,0.3,0.7,0.5,1.1,0.7s0.8,0.2,1.3,0.2c0.5,0,1-0.1,1.4-0.4
		c0.4-0.2,0.6-0.5,0.6-0.9c0-0.4-0.2-0.7-0.6-1c-0.4-0.2-1-0.4-1.8-0.5c-2-0.3-3.1-1.3-3.1-2.9c0-0.6,0.2-1.1,0.5-1.5
		c0.3-0.4,0.7-0.8,1.3-1c0.5-0.2,1.1-0.3,1.8-0.3c0.6,0,1.1,0.1,1.7,0.3c0.5,0.2,0.9,0.4,1.3,0.7c0.3,0.2,0.4,0.5,0.4,0.7
		c0,0.2-0.1,0.4-0.2,0.6s-0.3,0.2-0.6,0.2c-0.1,0-0.3,0-0.4-0.1c-0.2-0.2-0.6-0.4-1-0.5c-0.4-0.2-0.8-0.2-1.2-0.2
		c-0.6,0-1,0.1-1.4,0.3c-0.3,0.2-0.5,0.5-0.5,0.9c0,0.4,0.2,0.7,0.5,0.9c0.3,0.2,0.9,0.4,1.6,0.5c0.8,0.1,1.4,0.3,1.9,0.5
		c0.5,0.2,0.8,0.5,1.1,0.9c0.2,0.4,0.4,0.9,0.4,1.5c0,0.6-0.2,1.1-0.5,1.5c-0.3,0.4-0.8,0.8-1.3,1C67.4,19,66.8,19.1,66.2,19.1z
		 M76.8,11.5c0.2,0,0.4,0.1,0.6,0.2s0.2,0.4,0.2,0.6v3.6c0,1-0.3,1.8-0.8,2.4c-0.6,0.6-1.3,0.9-2.4,0.9s-1.8-0.3-2.4-0.9
		c-0.6-0.6-0.8-1.4-0.8-2.4v-3.6c0-0.2,0.1-0.4,0.2-0.6c0.2-0.2,0.4-0.2,0.6-0.2s0.4,0.1,0.6,0.2s0.2,0.4,0.2,0.6v3.6
		c0,0.6,0.1,1,0.4,1.3c0.3,0.3,0.6,0.4,1.1,0.4c0.5,0,0.9-0.1,1.1-0.4c0.3-0.3,0.4-0.7,0.4-1.3v-3.6c0-0.2,0.1-0.4,0.2-0.6
		S76.6,11.5,76.8,11.5z M83.4,11.4c0.6,0,1.2,0.2,1.8,0.5c0.5,0.3,0.9,0.8,1.2,1.4c0.3,0.6,0.5,1.3,0.5,2s-0.1,1.4-0.4,2
		s-0.7,1.1-1.2,1.4c-0.5,0.3-1.1,0.5-1.7,0.5c-0.4,0-0.9-0.1-1.3-0.3s-0.7-0.4-1-0.7v2.7c0,0.2-0.1,0.4-0.2,0.6s-0.4,0.2-0.6,0.2
		c-0.2,0-0.4-0.1-0.6-0.2c-0.2-0.2-0.2-0.4-0.2-0.6v-8.6c0-0.2,0.1-0.4,0.2-0.6s0.4-0.2,0.6-0.2c0.2,0,0.4,0.1,0.6,0.2
		s0.2,0.4,0.2,0.6v0.1c0.2-0.3,0.5-0.5,0.9-0.7C82.5,11.5,82.9,11.4,83.4,11.4z M83.2,17.6c0.6,0,1.1-0.2,1.5-0.7s0.6-1,0.6-1.7
		c0-0.7-0.2-1.2-0.6-1.7c-0.4-0.4-0.9-0.7-1.5-0.7s-1.1,0.2-1.5,0.7s-0.6,1-0.6,1.7c0,0.7,0.2,1.2,0.6,1.7S82.5,17.6,83.2,17.6z
		 M92.1,11.4c0.6,0,1.2,0.2,1.8,0.5c0.5,0.3,0.9,0.8,1.2,1.4c0.3,0.6,0.5,1.3,0.5,2s-0.1,1.4-0.4,2s-0.7,1.1-1.2,1.4
		c-0.5,0.3-1.1,0.5-1.7,0.5c-0.4,0-0.9-0.1-1.3-0.3s-0.7-0.4-1-0.7v2.7c0,0.2-0.1,0.4-0.2,0.6s-0.4,0.2-0.6,0.2s-0.4-0.1-0.6-0.2
		c-0.2-0.2-0.2-0.4-0.2-0.6v-8.6c0-0.2,0.1-0.4,0.2-0.6s0.4-0.2,0.6-0.2s0.4,0.1,0.6,0.2s0.2,0.4,0.2,0.6v0.1
		c0.2-0.3,0.5-0.5,0.9-0.7C91.2,11.5,91.6,11.4,92.1,11.4z M91.9,17.6c0.6,0,1.1-0.2,1.5-0.7s0.6-1,0.6-1.7c0-0.7-0.2-1.2-0.6-1.7
		c-0.4-0.4-0.9-0.7-1.5-0.7s-1.1,0.2-1.5,0.7s-0.6,1-0.6,1.7c0,0.7,0.2,1.2,0.6,1.7S91.3,17.6,91.9,17.6z M104.1,15.3
		c0,0.7-0.2,1.4-0.5,2c-0.3,0.6-0.8,1.1-1.4,1.4c-0.6,0.3-1.2,0.5-1.9,0.5c-0.7,0-1.4-0.2-1.9-0.5c-0.6-0.3-1-0.8-1.4-1.4
		s-0.5-1.3-0.5-2s0.2-1.4,0.5-2s0.8-1.1,1.4-1.4c0.6-0.3,1.2-0.5,1.9-0.5c0.7,0,1.3,0.2,1.9,0.5c0.6,0.3,1,0.8,1.4,1.4
		C104,13.8,104.1,14.5,104.1,15.3z M102.4,15.3c0-0.5-0.1-0.9-0.3-1.2c-0.2-0.4-0.4-0.6-0.8-0.8c-0.3-0.2-0.7-0.3-1.1-0.3
		c-0.4,0-0.7,0.1-1.1,0.3c-0.3,0.2-0.6,0.5-0.8,0.8c-0.2,0.4-0.3,0.8-0.3,1.2s0.1,0.9,0.3,1.2c0.2,0.4,0.4,0.6,0.8,0.8
		c0.3,0.2,0.7,0.3,1.1,0.3c0.4,0,0.7-0.1,1.1-0.3s0.6-0.5,0.8-0.8C102.4,16.1,102.4,15.7,102.4,15.3z M109.4,11.4
		c0.3,0,0.5,0.1,0.7,0.2s0.3,0.3,0.3,0.6c0,0.3-0.1,0.5-0.2,0.7c-0.1,0.1-0.3,0.2-0.5,0.2c-0.1,0-0.3,0-0.5-0.1c0,0-0.1,0-0.2-0.1
		s-0.2,0-0.3,0c-0.2,0-0.5,0.1-0.7,0.2c-0.2,0.1-0.4,0.4-0.6,0.7c-0.1,0.3-0.2,0.7-0.2,1.1v3.3c0,0.2-0.1,0.4-0.2,0.6
		c-0.2,0.2-0.4,0.2-0.6,0.2s-0.4-0.1-0.6-0.2c-0.2-0.2-0.2-0.4-0.2-0.6v-5.8c0-0.2,0.1-0.4,0.2-0.6s0.4-0.2,0.6-0.2s0.4,0.1,0.6,0.2
		c0.2,0.2,0.2,0.4,0.2,0.6v0.2c0.2-0.4,0.5-0.7,0.9-0.9C108.5,11.5,109,11.4,109.4,11.4z M115.2,17.4c0.1,0,0.2,0.1,0.4,0.2
		c0.1,0.1,0.2,0.3,0.2,0.5c0,0.3-0.1,0.5-0.4,0.6c-0.3,0.2-0.6,0.3-0.9,0.3c-0.6,0-1.1-0.1-1.5-0.4c-0.4-0.2-0.6-0.8-0.6-1.6v-3.9
		h-0.6c-0.2,0-0.4-0.1-0.6-0.2c-0.1-0.1-0.2-0.3-0.2-0.6c0-0.2,0.1-0.4,0.2-0.5c0.1-0.1,0.3-0.2,0.6-0.2h0.6v-0.9
		c0-0.2,0.1-0.4,0.2-0.6c0.2-0.2,0.4-0.2,0.6-0.2c0.2,0,0.4,0.1,0.6,0.2c0.2,0.2,0.2,0.4,0.2,0.6v0.9h1c0.2,0,0.4,0.1,0.6,0.2
		c0.1,0.1,0.2,0.3,0.2,0.6c0,0.2-0.1,0.4-0.2,0.5c-0.1,0.1-0.3,0.2-0.6,0.2h-1V17c0,0.2,0.1,0.3,0.2,0.4s0.2,0.1,0.4,0.1
		c0.1,0,0.2,0,0.3-0.1C115,17.4,115.1,17.4,115.2,17.4z M129.9,11.4c0.9,0,1.6,0.3,1.9,0.8c0.4,0.6,0.5,1.3,0.5,2.3v3.6
		c0,0.2-0.1,0.4-0.2,0.6c-0.2,0.2-0.4,0.2-0.6,0.2c-0.2,0-0.4-0.1-0.6-0.2c-0.2-0.2-0.2-0.4-0.2-0.6v-3.6c0-0.5-0.1-0.9-0.3-1.2
		s-0.6-0.4-1.1-0.4c-0.5,0-0.9,0.2-1.2,0.5c-0.3,0.3-0.4,0.7-0.4,1.2v3.6c0,0.2-0.1,0.4-0.2,0.6c-0.2,0.2-0.4,0.2-0.6,0.2
		s-0.4-0.1-0.6-0.2c-0.2-0.2-0.2-0.4-0.2-0.6v-3.6c0-0.5-0.1-0.9-0.3-1.2s-0.6-0.4-1.1-0.4c-0.5,0-0.9,0.2-1.2,0.5
		c-0.3,0.3-0.4,0.7-0.4,1.2v3.6c0,0.2-0.1,0.4-0.2,0.6c-0.2,0.2-0.4,0.2-0.6,0.2s-0.4-0.1-0.6-0.2c-0.2-0.2-0.2-0.4-0.2-0.6v-5.8
		c0-0.2,0.1-0.4,0.2-0.6s0.4-0.2,0.6-0.2s0.4,0.1,0.6,0.2c0.2,0.2,0.2,0.4,0.2,0.6v0.2c0.3-0.3,0.6-0.6,1-0.9
		c0.4-0.2,0.8-0.4,1.3-0.4c1.2,0,1.9,0.5,2.3,1.5c0.2-0.4,0.5-0.7,1-1.1C128.8,11.5,129.3,11.4,129.9,11.4z M140.9,15.1
		c0,0.2-0.1,0.4-0.3,0.5c-0.2,0.1-0.4,0.2-0.6,0.2h-4.6c0.1,0.6,0.4,1,0.8,1.3s0.9,0.5,1.4,0.5c0.4,0,0.7,0,0.9-0.1
		c0.2-0.1,0.4-0.1,0.5-0.2c0.1-0.1,0.2-0.1,0.3-0.2c0.2-0.1,0.3-0.1,0.5-0.1c0.2,0,0.4,0.1,0.5,0.2s0.2,0.3,0.2,0.5
		c0,0.3-0.1,0.5-0.4,0.7c-0.3,0.2-0.6,0.4-1.1,0.5s-0.9,0.2-1.3,0.2c-0.8,0-1.5-0.2-2.1-0.5c-0.6-0.3-1-0.8-1.4-1.4
		c-0.3-0.6-0.5-1.2-0.5-1.9c0-0.8,0.2-1.5,0.5-2.1c0.3-0.6,0.8-1.1,1.3-1.4c0.6-0.3,1.1-0.5,1.8-0.5c0.6,0,1.2,0.2,1.7,0.5
		c0.5,0.3,1,0.8,1.3,1.4C140.7,13.8,140.9,14.4,140.9,15.1z M137.3,12.9c-1.1,0-1.7,0.5-1.9,1.5h3.7v-0.1c0-0.4-0.2-0.7-0.6-1
		S137.8,12.9,137.3,12.9z M153.4,15.3c0,0.7-0.2,1.4-0.5,2s-0.8,1.1-1.4,1.4c-0.6,0.3-1.2,0.5-1.9,0.5c-0.7,0-1.4-0.2-1.9-0.5
		c-0.6-0.3-1-0.8-1.4-1.4s-0.5-1.3-0.5-2s0.2-1.4,0.5-2s0.8-1.1,1.4-1.4c0.6-0.3,1.2-0.5,1.9-0.5c0.7,0,1.3,0.2,1.9,0.5
		c0.6,0.3,1,0.8,1.4,1.4S153.4,14.5,153.4,15.3z M151.7,15.3c0-0.5-0.1-0.9-0.3-1.2s-0.4-0.6-0.8-0.8c-0.3-0.2-0.7-0.3-1.1-0.3
		s-0.7,0.1-1.1,0.3c-0.3,0.2-0.6,0.5-0.8,0.8c-0.2,0.4-0.3,0.8-0.3,1.2s0.1,0.9,0.3,1.2c0.2,0.4,0.4,0.6,0.8,0.8s0.7,0.3,1.1,0.3
		s0.7-0.1,1.1-0.3s0.6-0.5,0.8-0.8C151.6,16.1,151.7,15.7,151.7,15.3z M158.8,11.4c1,0,1.6,0.3,2,0.8c0.4,0.6,0.5,1.3,0.5,2.3v3.6
		c0,0.2-0.1,0.4-0.2,0.6c-0.2,0.2-0.4,0.2-0.6,0.2c-0.2,0-0.4-0.1-0.6-0.2c-0.2-0.2-0.2-0.4-0.2-0.6v-3.6c0-0.5-0.1-0.9-0.3-1.2
		c-0.2-0.3-0.6-0.4-1.1-0.4c-0.5,0-1,0.2-1.3,0.5c-0.3,0.3-0.5,0.7-0.5,1.2v3.6c0,0.2-0.1,0.4-0.2,0.6c-0.2,0.2-0.4,0.2-0.6,0.2
		c-0.2,0-0.4-0.1-0.6-0.2c-0.2-0.2-0.2-0.4-0.2-0.6v-5.8c0-0.2,0.1-0.4,0.2-0.6s0.4-0.2,0.6-0.2c0.2,0,0.4,0.1,0.6,0.2
		c0.2,0.2,0.2,0.4,0.2,0.6v0.2c0.3-0.3,0.6-0.6,1-0.9S158.3,11.4,158.8,11.4z M174.7,17.5c0.1,0.1,0.1,0.2,0.1,0.3
		c0,0.1,0.1,0.2,0.1,0.3c0,0.3-0.1,0.5-0.3,0.6c-0.2,0.2-0.4,0.3-0.7,0.3c-0.1,0-0.2,0-0.4-0.1s-0.2-0.1-0.3-0.2l-3-4l-1.3,1.3v2.2
		c0,0.3-0.1,0.5-0.2,0.6c-0.2,0.2-0.4,0.2-0.6,0.2c-0.3,0-0.5-0.1-0.6-0.2c-0.2-0.2-0.2-0.4-0.2-0.6v-8.1c0-0.2,0.1-0.4,0.3-0.6
		c0.2-0.2,0.4-0.2,0.6-0.2c0.3,0,0.5,0.1,0.6,0.2c0.2,0.2,0.2,0.4,0.2,0.6v3.8l4.5-4.4c0.2-0.2,0.4-0.3,0.7-0.3
		c0.2,0,0.4,0.1,0.5,0.3c0.1,0.2,0.2,0.4,0.2,0.6s-0.1,0.4-0.3,0.5l-3.1,2.9L174.7,17.5z M183.4,15.3c0,0.7-0.2,1.4-0.5,2
		s-0.8,1.1-1.4,1.4c-0.6,0.3-1.2,0.5-1.9,0.5c-0.7,0-1.4-0.2-1.9-0.5c-0.6-0.3-1-0.8-1.4-1.4s-0.5-1.3-0.5-2s0.2-1.4,0.5-2
		s0.8-1.1,1.4-1.4c0.6-0.3,1.2-0.5,1.9-0.5c0.7,0,1.3,0.2,1.9,0.5c0.6,0.3,1,0.8,1.4,1.4S183.4,14.5,183.4,15.3z M181.7,15.3
		c0-0.5-0.1-0.9-0.3-1.2s-0.4-0.6-0.8-0.8c-0.3-0.2-0.7-0.3-1.1-0.3s-0.7,0.1-1.1,0.3c-0.3,0.2-0.6,0.5-0.8,0.8
		c-0.2,0.4-0.3,0.8-0.3,1.2s0.1,0.9,0.3,1.2c0.2,0.4,0.4,0.6,0.8,0.8s0.7,0.3,1.1,0.3s0.7-0.1,1.1-0.3s0.6-0.5,0.8-0.8
		C181.6,16.1,181.7,15.7,181.7,15.3z M185.5,15.5c-0.2,0-0.4-0.1-0.6-0.2c-0.2-0.2-0.2-0.4-0.2-0.6c0-0.2,0.1-0.4,0.2-0.6
		c0.2-0.2,0.4-0.2,0.6-0.2h2.4c0.2,0,0.4,0.1,0.6,0.2c0.2,0.2,0.2,0.4,0.2,0.6c0,0.2-0.1,0.4-0.2,0.6c-0.2,0.2-0.4,0.2-0.6,0.2
		H185.5z M194,10.1c-0.3,0-0.5,0.1-0.7,0.3c-0.1,0.2-0.2,0.4-0.2,0.6v0.7h1.3c0.2,0,0.4,0.1,0.6,0.2c0.1,0.1,0.2,0.3,0.2,0.6
		s-0.1,0.4-0.2,0.6c-0.1,0.1-0.3,0.2-0.6,0.2h-1.3v5c0,0.2-0.1,0.4-0.2,0.6c-0.2,0.2-0.4,0.2-0.6,0.2c-0.2,0-0.4-0.1-0.6-0.2
		c-0.2-0.2-0.2-0.4-0.2-0.6v-5h-0.8c-0.2,0-0.4-0.1-0.6-0.2c-0.1-0.1-0.2-0.3-0.2-0.6s0.1-0.4,0.2-0.6c0.1-0.1,0.3-0.2,0.6-0.2h0.8
		V11c0-0.7,0.2-1.3,0.7-1.7c0.5-0.4,1.2-0.7,2.1-0.7c0.3,0,0.6,0.1,0.9,0.2c0.3,0.1,0.4,0.4,0.4,0.6c0,0.2-0.1,0.4-0.2,0.5
		s-0.3,0.2-0.5,0.2c0,0-0.1,0-0.1,0s-0.1,0-0.2,0C194.3,10.2,194.1,10.1,194,10.1z M197.8,18.1c0,0.2-0.1,0.4-0.2,0.6
		c-0.2,0.2-0.4,0.2-0.6,0.2c-0.2,0-0.4-0.1-0.6-0.2c-0.2-0.2-0.2-0.4-0.2-0.6v-5.8c0-0.2,0.1-0.4,0.2-0.6c0.2-0.2,0.4-0.2,0.6-0.2
		c0.2,0,0.4,0.1,0.6,0.2c0.2,0.2,0.2,0.4,0.2,0.6V18.1z M196.9,10.6c-0.3,0-0.5-0.1-0.7-0.2c-0.1-0.1-0.2-0.3-0.2-0.5V9.6
		c0-0.3,0.1-0.4,0.2-0.5c0.1-0.1,0.4-0.2,0.7-0.2c0.3,0,0.6,0.1,0.7,0.2c0.1,0.1,0.2,0.3,0.2,0.5v0.3c0,0.3-0.1,0.5-0.2,0.6
		S197.3,10.6,196.9,10.6z"/>
</g>
<rect class="st2" width="9.9" height="30"/>
<rect x="213.9" class="st2" width="9.1" height="30"/>
</svg>
